<svg id="Layer_2" data-name="Layer 2" xmlns="http://www.w3.org/2000/svg" viewBox="0 0 1834.76 339.86"><defs><style>.cls-1{fill:#fff;}</style></defs><path class="cls-1" d="M475.39,99.23H615v39.41H564.64V306.42H523.81V138.64H475.39Z" transform="translate(-19.11 -40.07)"/><path class="cls-1" d="M680.35,309.8q-22.54,0-38.15-8.44A57.71,57.71,0,0,1,618.4,278a70.44,70.44,0,0,1-8.16-34.34,60.86,60.86,0,0,1,9.57-33.48,70.21,70.21,0,0,1,25.63-23.8,72.65,72.65,0,0,1,35.74-8.85q26.45,0,43.49,15.34t22.11,44.34l-95.71,30.43-8.74-21.41,69.26-23.37-8.1,3.59a29.52,29.52,0,0,0-8-12.81q-5.84-5.46-17.37-5.45a28.69,28.69,0,0,0-15.35,4.09,26.25,26.25,0,0,0-10.13,11.54,41,41,0,0,0-3.52,17.59,39.92,39.92,0,0,0,4.19,19.29,28.13,28.13,0,0,0,11.53,11.67,33.76,33.76,0,0,0,16.33,3.94A35.45,35.45,0,0,0,693.66,274a67,67,0,0,0,12-5.9l17.45,29.27a100,100,0,0,1-21.3,9A75.72,75.72,0,0,1,680.35,309.8Z" transform="translate(-19.11 -40.07)"/><path class="cls-1" d="M880,295.44a64.52,64.52,0,0,1-20.4,10.42,78.51,78.51,0,0,1-24.08,3.94q-21.1,0-36.73-7.74a56.72,56.72,0,0,1-24.21-22.24q-8.6-14.49-8.58-35t9.28-35a61.24,61.24,0,0,1,24.35-22.1,69.52,69.52,0,0,1,31.68-7.61,83.83,83.83,0,0,1,28.91,4.57,70.1,70.1,0,0,1,21,11.82l-19.14,25.34a57.63,57.63,0,0,0-10.84-6.33A37.73,37.73,0,0,0,835,212.28a27.49,27.49,0,0,0-14.91,4.23A30.12,30.12,0,0,0,809.46,228a34.93,34.93,0,0,0-3.94,16.89,33.69,33.69,0,0,0,4,16.5,31.09,31.09,0,0,0,11.69,12,34.12,34.12,0,0,0,17.59,4.36,37.66,37.66,0,0,0,12-1.82,27.82,27.82,0,0,0,9.43-5.22Z" transform="translate(-19.11 -40.07)"/><path class="cls-1" d="M910.33,306.42V84.31H948.9V208.17l-.29-4.78a50.86,50.86,0,0,1,18.26-18.73q11.83-7.17,28.92-7.17,17.46,0,29.14,10.27a34.64,34.64,0,0,1,12,26.6v92.06H997.47V229a21.06,21.06,0,0,0-4.36-13.09Q989,211,979.41,211a23.19,23.19,0,0,0-15.76,5.92,37.82,37.82,0,0,0-10.41,16,68.54,68.54,0,0,0-3.67,23.37v50.11Z" transform="translate(-19.11 -40.07)"/><path class="cls-1" d="M1084.21,99.23H1125V306.42h-40.78Z" transform="translate(-19.11 -40.07)"/><path class="cls-1" d="M1207.8,183.4l3,21.95-.56-2a50.78,50.78,0,0,1,18.26-18.73q11.82-7.17,28.91-7.17,17.47,0,29.14,10.27a34.6,34.6,0,0,1,12,26.6v92.06h-39.41V229a21.19,21.19,0,0,0-4.35-13.09q-4.08-4.92-13.7-4.93a23.19,23.19,0,0,0-15.76,5.92,37.82,37.82,0,0,0-10.41,16,68.54,68.54,0,0,0-3.67,23.37v50.11h-39.41v-123Z" transform="translate(-19.11 -40.07)"/><path class="cls-1" d="M1350.8,129.35h39.42v53.48h29.83v30.69h-29.83v92.83H1350.8V213.52h-19.14V182.83h19.14Z" transform="translate(-19.11 -40.07)"/><path class="cls-1" d="M1510.7,309.8q-22.53,0-38.15-8.44A57.78,57.78,0,0,1,1448.77,278a70.33,70.33,0,0,1-8.16-34.34,60.67,60.67,0,0,1,9.57-33.48,70.39,70.39,0,0,1,25.61-23.8,72.73,72.73,0,0,1,35.76-8.85q26.46,0,43.49,15.34t22.1,44.34l-95.72,30.43-8.72-21.41,69.22-23.4-8.17,3.66a29.38,29.38,0,0,0-8-12.81q-5.74-5.49-17.28-5.49a28.63,28.63,0,0,0-15.34,4.09A26.25,26.25,0,0,0,1483,223.8a41,41,0,0,0-3.52,17.59,40,40,0,0,0,4.22,19.29,28.15,28.15,0,0,0,11.54,11.67,33.68,33.68,0,0,0,16.33,3.94,35.5,35.5,0,0,0,12.53-2.25,67.11,67.11,0,0,0,12-5.9l17.45,29.27a99.52,99.52,0,0,1-21.3,9A76.06,76.06,0,0,1,1510.7,309.8Z" transform="translate(-19.11 -40.07)"/><path class="cls-1" d="M1641.61,183.4l3,21.95-.56-2a50.78,50.78,0,0,1,18.26-18.73q11.82-7.17,28.91-7.17,17.48,0,29.14,10.27a34.6,34.6,0,0,1,12,26.6v92.06H1693V229a21.19,21.19,0,0,0-4.35-13.09q-4.08-4.92-13.7-4.93a23.19,23.19,0,0,0-15.76,5.92,37.82,37.82,0,0,0-10.41,16,68.54,68.54,0,0,0-3.67,23.37v50.11h-39.23v-123Z" transform="translate(-19.11 -40.07)"/><path class="cls-1" d="M1784.61,129.35H1824v53.48h29.83v30.69H1824v92.83h-39.42V213.52h-19.14V182.83h19.14Z" transform="translate(-19.11 -40.07)"/><path class="cls-1" d="M319.49,62.71a45.24,45.24,0,0,0-39.2-22.64H136.35A45.27,45.27,0,0,0,97.14,62.71l-72,124.65a45.22,45.22,0,0,0,0,45.28L37.51,254a273.53,273.53,0,0,1,72.71-88V125h71.55a273.77,273.77,0,0,1,168.13-9.62Z" transform="translate(-19.11 -40.07)"/><path class="cls-1" d="M153.67,166.25H110.22V166a273.63,273.63,0,0,0-72.69,88h0l45.73,79.22A202.08,202.08,0,0,1,153.89,222Z" transform="translate(-19.11 -40.07)"/><path class="cls-1" d="M391.39,187.36l-41.47-72A273.68,273.68,0,0,0,181.77,125h61.06v41.21H199.49l.36,28.15a202.92,202.92,0,0,1,197.41,20.17A45.24,45.24,0,0,0,391.39,187.36Zm-85-42a20.34,20.34,0,0,1-20.34,20.34h-.85a20.34,20.34,0,0,1-20.34-20.34h0A20.34,20.34,0,0,1,285.22,125h.85a20.34,20.34,0,0,1,20.34,20.34Z" transform="translate(-19.11 -40.07)"/><path class="cls-1" d="M199.85,194.4l.48,38.39H153.94L153.89,222A203.39,203.39,0,0,0,83.27,333.22h0l13.9,24.07a45.27,45.27,0,0,0,39.21,22.64h27.48a116.74,116.74,0,0,1,101-115.14V186.41h41.53v80.23A116.85,116.85,0,0,1,357,292.27l34.43-59.6a45,45,0,0,0,5.87-18.06A202.78,202.78,0,0,0,199.85,194.4Zm1,80.21A20.34,20.34,0,0,1,180.48,295h-6.06a20.34,20.34,0,0,1-20.34-20.34v-.82a20.34,20.34,0,0,1,20.34-20.34h6.06a20.34,20.34,0,0,1,20.34,20.34Z" transform="translate(-19.11 -40.07)"/><path class="cls-1" d="M306.41,266.62V295H264.88V264.81a116.72,116.72,0,0,0-101,115.12h64.71a52,52,0,0,1,94.71-29.15l33.78-58.51A116.23,116.23,0,0,0,306.41,266.62Z" transform="translate(-19.11 -40.07)"/><path class="cls-1" d="M280.56,328.48a52,52,0,0,0-52,51.45h51.73a45.24,45.24,0,0,0,39.2-22.64l3.76-6.51A51.93,51.93,0,0,0,280.56,328.48Z" transform="translate(-19.11 -40.07)"/></svg>