<?xml version="1.0" encoding="utf-8"?>
<!-- Generator: Adobe Illustrator 25.2.3, SVG Export Plug-In . SVG Version: 6.00 Build 0)  -->
<svg version="1.1" id="Layer_1" xmlns="http://www.w3.org/2000/svg" xmlns:xlink="http://www.w3.org/1999/xlink" x="0px" y="0px"
	 viewBox="0 0 512 512" style="enable-background:new 0 0 512 512;" xml:space="preserve">
<style type="text/css">
	.st0{fill:#E2E9EE;}
	.st1{fill:#D84315;}
	.st2{fill:#FFE082;}
	.st3{fill:#DFEDFF;}
</style>
<g id="XMLID_778_">
	<g>
		<path id="XMLID_1579_" class="st0" d="M62.6,153.3l40.5-40.5l34.4,34.4L97,187.8L62.6,153.3z"/>
		<path id="XMLID_1578_" class="st0" d="M374.4,147.3l34.4-34.4l40.5,40.5l-34.4,34.4L374.4,147.3z"/>
		<path id="XMLID_1577_" class="st0" d="M230.9,105V89.2c0-13.9,11.3-25.2,25.3-25.2s25.2,11.3,25.2,25.2V105H230.9z"/>
	</g>
	<path id="XMLID_1576_" class="st1" d="M458.8,162.8l-59.4-59.4c-3.5-3.5-3.5-9.2,0-12.7l23.5-23.5c3.5-3.5,9.2-3.5,12.7,0
		l59.4,59.4c3.5,3.5,3.5,9.2,0,12.7l-23.5,23.5C468,166.3,462.3,166.3,458.8,162.8z"/>
	<path id="XMLID_1575_" class="st1" d="M53.2,162.8l59.4-59.4c3.5-3.5,3.5-9.2,0-12.7L89.1,67.1c-3.5-3.5-9.2-3.5-12.7,0L17,126.5
		c-3.5,3.5-3.5,9.2,0,12.7l23.5,23.5C44,166.3,49.7,166.3,53.2,162.8z"/>
	<circle id="XMLID_1573_" class="st2" cx="256" cy="306" r="196"/>
	<circle id="XMLID_1533_" class="st3" cx="256" cy="306" r="152"/>
	<circle id="XMLID_2522_" class="st1" cx="256" cy="306" r="22"/>
	<g id="XMLID_373_">
		<path id="XMLID_374_" d="M256,144c-89.3,0-162,72.7-162,162c0,35.3,11.1,68.8,32.2,96.9c20.4,27.2,49.3,47.7,81.6,57.8
			c5.3,1.6,10.9-1.3,12.5-6.6c1.6-5.3-1.3-10.9-6.6-12.5C154.1,423.1,114,368.6,114,306c0-78.3,63.7-142,142-142s142,63.7,142,142
			c0,62.8-40.3,117.4-100.4,135.8c-5.3,1.6-8.3,7.2-6.6,12.5c1.3,4.3,5.3,7.1,9.6,7.1c1,0,2-0.1,2.9-0.4
			c32.5-9.9,61.6-30.4,82.1-57.7C406.8,375,418,341.4,418,306C418,216.7,345.3,144,256,144L256,144z"/>
		<path id="XMLID_397_" d="M335.6,240.6c3.9-3.9,3.9-10.2,0-14.1c-3.9-3.9-10.2-3.9-14.1,0l-51,51c-12-6-27-4.1-37,5.9
			c-10,10-12,25-5.9,37l-16.5,16.5c-3.9,3.9-3.9,10.2,0,14.1c2,2,4.5,2.9,7.1,2.9s5.1-1,7.1-2.9l16.5-16.5c4.5,2.3,9.5,3.4,14.4,3.4
			c8.2,0,16.4-3.1,22.6-9.4c10-10,12-25,5.9-37L335.6,240.6z M264.5,314.5c-4.7,4.7-12.3,4.7-17,0c0,0,0,0,0,0s0,0,0,0
			c-4.7-4.7-4.7-12.3,0-17c2.3-2.3,5.4-3.5,8.5-3.5c3.1,0,6.1,1.2,8.5,3.5c0,0,0,0,0,0l0,0C269.2,302.2,269.2,309.8,264.5,314.5z"/>
		<path id="XMLID_416_" d="M502.1,119.5l-59.4-59.4c-7.4-7.4-19.5-7.4-26.9,0l-23.5,23.5c-7.4,7.4-7.4,19.5,0,26.9l2.4,2.4
			l-22.9,22.9c-22.3-15.2-47.7-26.2-75.1-31.7C308.8,92.8,316,76.8,316,60c0-33.1-26.9-60-60-60s-60,26.9-60,60
			c0,16.8,7.2,32.8,19.3,44c-27.4,5.5-52.8,16.5-75.1,31.7l-22.9-22.9l2.4-2.4c7.4-7.4,7.4-19.5,0-26.9L96.2,60.1
			c-7.4-7.4-19.5-7.4-26.9,0L9.9,119.5c-7.4,7.4-7.4,19.5,0,26.9l23.5,23.5c3.7,3.7,8.6,5.6,13.4,5.6s9.7-1.9,13.4-5.6l2.4-2.4
			l22.9,22.9C63.1,223.4,50,263.2,50,306c0,113.6,92.4,206,206,206s206-92.4,206-206c0-42.8-13.1-82.6-35.6-115.6l22.9-22.9l2.4,2.4
			c3.7,3.7,8.6,5.6,13.4,5.6c4.9,0,9.7-1.9,13.4-5.6l23.5-23.5C509.5,138.9,509.5,126.9,502.1,119.5L502.1,119.5z M271.4,100.6
			c-5.1-0.4-10.2-0.6-15.4-0.6c-5.1,0-10.1,0.2-15.1,0.6V89.3c0-8.4,6.8-15.2,15.3-15.2c8.4,0,15.2,6.8,15.2,15.2V100.6z M256,20
			c22.1,0,40,17.9,40,40c0,7.3-2.1,14.4-5.7,20.5C286.4,65.3,272.6,54,256.1,54c-16.5,0-30.4,11.4-34.2,26.8
			c-3.8-6.2-5.9-13.4-5.9-20.8C216,37.9,233.9,20,256,20z M24.7,132.9l58-58L104.8,97l-58,58L24.7,132.9z M76.8,153.4l26.4-26.4
			l20.9,20.9c-9.6,8-18.4,16.8-26.4,26.4L76.8,153.4z M256,492c-102.6,0-186-83.4-186-186s83.4-186,186-186s186,83.4,186,186
			S358.6,492,256,492z M414.3,174.3c-8-9.6-16.8-18.4-26.4-26.4l20.9-20.9l26.4,26.4L414.3,174.3z M465.2,155l-58-58l22.1-22.1
			l58,58L465.2,155z"/>
		<path id="XMLID_423_" d="M256.1,448.1c-2.6,0-5.2,1.1-7.1,2.9c-1.9,1.9-2.9,4.4-2.9,7.1c0,2.6,1.1,5.2,2.9,7.1
			c1.9,1.9,4.4,2.9,7.1,2.9c2.6,0,5.2-1.1,7.1-2.9c1.9-1.9,2.9-4.4,2.9-7.1s-1.1-5.2-2.9-7.1C261.3,449.1,258.7,448.1,256.1,448.1z"
			/>
	</g>
</g>
</svg>
