<svg id="Layer_1" data-name="Layer 1" xmlns="http://www.w3.org/2000/svg" viewBox="0 0 500 500"><defs><style>.cls-1{fill:#fff;}.cls-2{fill:#ddd;}</style></defs><title>apple-icon</title><path class="cls-1" d="M250,473.65A223.64,223.64,0,0,1,91.86,91.86,223.64,223.64,0,1,1,408.14,408.14,222.14,222.14,0,0,1,250,473.65Z"/><path class="cls-2" d="M250,27.7a222.36,222.36,0,0,1,86.53,427.13A222.36,222.36,0,0,1,163.47,45.17,221,221,0,0,1,250,27.7m0-2.7C125.74,25,25,125.74,25,250S125.74,475,250,475,475,374.26,475,250,374.26,25,250,25Z"/><path d="M212.1,387.16c-40.83-.24-74.6-83.58-74.6-126,0-69.33,52-84.51,72.05-84.51,9,0,18.68,3.55,27.19,6.69,5.95,2.19,12.1,4.45,15.52,4.45,2.05,0,6.88-1.93,11.14-3.61,9.09-3.62,20.4-8.12,33.57-8.12h.08c9.83,0,39.65,2.16,57.57,29.08l4.2,6.31-6,4.56c-8.64,6.51-24.39,18.39-24.39,41.93,0,27.88,17.84,38.6,26.41,43.76,3.78,2.27,7.7,4.62,7.7,9.75,0,3.35-26.75,75.31-65.59,75.31-9.5,0-16.22-2.85-22.15-5.37s-11.16-4.75-19.71-4.75c-4.33,0-9.81,2.05-15.61,4.22-7.93,3-16.9,6.32-27.08,6.32Z"/><path d="M301.08,112.84c1,36.48-25.07,61.78-51.12,60.19C245.66,143.93,276,112.84,301.08,112.84Z"/></svg>