<?xml version="1.0" encoding="utf-8"?>
<!-- Generator: Adobe Illustrator 24.0.2, SVG Export Plug-In . SVG Version: 6.00 Build 0)  -->
<svg version="1.1" id="Layer_1" xmlns="http://www.w3.org/2000/svg" xmlns:xlink="http://www.w3.org/1999/xlink" x="0px" y="0px"
	 viewBox="0 0 25 30" style="enable-background:new 0 0 25 30;" xml:space="preserve">
<style type="text/css">
	.st0{fill:#FFFFFF;}
</style>
<title>avatar</title>
<g id="Page-1">
	<g id="Site-List" transform="translate(-60.000000, -272.000000)">
		<g id="buttons" transform="translate(36.000000, 180.000000)">
			<g id="avatar" transform="translate(24.000000, 92.000000)">
				<path id="Shape" class="st0" d="M12.4,16C12.4,16,12.5,16,12.4,16c0.1,0,0.1,0,0.1,0c0,0,0,0,0.1,0c1.8,0,3.3-0.7,4.4-1.9
					c2.4-2.7,2-7.2,2-7.7c-0.2-3.3-1.7-4.8-3-5.6C15,0.3,13.8,0,12.6,0h0c0,0,0,0,0,0h0c-0.7,0-2.1,0.1-3.4,0.8
					C7.8,1.6,6.2,3.1,6.1,6.4c0,0.4-0.4,5,2,7.7C9.1,15.3,10.6,16,12.4,16z M7.7,6.6C7.7,6.6,7.7,6.6,7.7,6.6
					c0.2-4.5,3.4-4.9,4.7-4.9h0c0,0,0,0,0,0c1.7,0,4.5,0.7,4.7,4.9c0,0,0,0,0,0c0,0,0.4,4.2-1.5,6.4c-0.8,0.9-1.8,1.3-3.2,1.3
					c0,0,0,0,0,0l0,0c0,0,0,0,0,0c-1.4,0-2.4-0.4-3.2-1.3C7.3,10.8,7.7,6.6,7.7,6.6z"/>
				<path id="Path" class="st0" d="M25,23.8C25,23.8,25,23.8,25,23.8c0-0.1,0-0.1,0-0.2c0-1.2-0.1-4.1-2.8-5.1c0,0,0,0-0.1,0
					c-2.7-0.7-5-2.3-5.1-2.4c-0.4-0.3-0.9-0.2-1.1,0.2c-0.3,0.4-0.2,0.9,0.2,1.2c0.1,0.1,2.5,1.8,5.6,2.6c1.4,0.5,1.6,2.1,1.6,3.5
					c0,0.1,0,0.1,0,0.2c0,0.6,0,1.4-0.1,1.9c-1,0.6-4.9,2.6-10.7,2.6c-5.9,0-9.7-2-10.7-2.6c-0.1-0.5-0.1-1.4-0.1-1.9
					c0-0.1,0-0.1,0-0.2c0-1.4,0.2-3,1.6-3.5c3-0.8,5.5-2.5,5.6-2.6c0.4-0.3,0.5-0.8,0.2-1.2c-0.3-0.4-0.8-0.5-1.1-0.2
					c0,0-2.3,1.6-5.1,2.4c0,0,0,0-0.1,0C0.1,19.5,0,22.4,0,23.6c0,0.1,0,0.1,0,0.2c0,0,0,0,0,0c0,0.3,0,2,0.3,2.8
					c0.1,0.2,0.2,0.3,0.3,0.4c0.2,0.1,4.6,3,11.9,3s11.7-2.9,11.9-3c0.1-0.1,0.3-0.2,0.3-0.4C25,25.8,25,24.1,25,23.8z"/>
			</g>
		</g>
	</g>
</g>
</svg>
