<?xml version="1.0" encoding="utf-8"?>
<!-- Generator: Adobe Illustrator 24.0.2, SVG Export Plug-In . SVG Version: 6.00 Build 0)  -->
<svg version="1.1" id="Layer_1" xmlns="http://www.w3.org/2000/svg" xmlns:xlink="http://www.w3.org/1999/xlink" x="0px" y="0px"
	 viewBox="0 0 57 57" style="enable-background:new 0 0 57 57;" xml:space="preserve">
<style type="text/css">
	.st0{fill:#4527A0;}
</style>
<circle id="Oval" class="st0" cx="38" cy="26" r="1"/>
<path id="Path" class="st0" d="M38,31c-0.6-0.1-1.2,0.3-1.3,0.9c-0.3,2-2.1,3.7-4.7,4.5c-2.8,0.8-6.7,0.6-9.1-2
	c-0.4-0.4-1.1-0.5-1.6-0.1s-0.5,1.1-0.1,1.5c1.4,1.5,3.3,2.4,5.4,2.9c0.8,0.1,1.6,0.2,2.4,0.2c1.2,0,2.5-0.2,3.6-0.5
	c3.5-1,5.8-3.4,6.3-6.2C39.1,31.7,38.7,31.1,38,31z"/>
<path id="Shape" class="st0" d="M53.5,21.2c-2-2.3-4.9-3.9-8.2-4.5c3.2-2.2,6-4.3,8-6.2c3-2.9,4.1-4.9,3.2-6.4
	c-0.9-1.6-3.7-1.6-8.6,0C43.7,5.6,38.5,8,33.3,11c-0.9,0.5-1.8,1.1-2.7,1.6c-0.7-1.8-0.2-3.9,1.2-5.7c1.1-1.4,1.3-3.1,0.6-4.5
	C31.7,0.9,30.1,0,28.2,0h-0.1C21.3,0,14.6,2.7,9.3,7.5C4,12.4,0.7,18.9,0.1,25.7c-0.7,8.2,1.9,16.1,7.5,22C13,53.6,20.7,57,28.7,57
	c4.3,0,8.3-0.8,12-2.3c3.4-1.4,6.3-3.4,8.8-6c2.3-2.4,4.2-5.1,5.5-8.1c1.2-2.9,1.9-5.9,1.9-8.8C57.1,27.6,55.8,23.9,53.5,21.2z
	 M30.7,15.1c1.2-0.7,2.4-1.5,3.7-2.2c4.9-2.8,9.7-5.1,13.6-6.5c4.3-1.5,6.1-1.4,6.5-1.2c0,0.3-0.4,1.4-3.2,4
	c-2.4,2.2-5.8,4.7-9.7,7.2c-1.2,0.8-2.5,1.5-3.8,2.3c-1.8,1-3.6,2-5.3,2.9c-0.4-1-0.8-2-1.3-2.9s-1.1-1.8-1.8-2.6
	C29.7,15.8,30.2,15.5,30.7,15.1z M30.4,22.6c-3.2,1.5-6.1,2.6-8.4,3.3c-0.1-0.6-0.3-1.1-0.6-1.7c-0.3-0.5-0.6-0.9-1.1-1.3
	c1.7-1.7,4.2-3.6,7.1-5.6c0.7,0.7,1.3,1.6,1.8,2.4C29.6,20.7,30.1,21.6,30.4,22.6z M54.8,31.7c-0.2,11.1-10.2,23-26,23
	c-7.4,0-14.5-3.1-19.5-8.5c-5.1-5.5-7.5-12.7-6.9-20.4C3.5,12.8,15,2.2,28.1,2.2h0.1c1.1,0,1.9,0.4,2.2,1.1C30.7,4,30.6,4.8,30,5.5
	c-2,2.5-2.5,5.7-1.4,8.3c-0.6,0.4-1.2,0.8-1.8,1.2l0,0c-3.6,2.4-6.6,4.8-8.6,6.8c-1.5-0.5-3.2-0.4-4.6,0.4c-2.3,1.3-5.4,7.6-6,8.8
	c-0.2,0.3-0.1,0.7,0,1c0.2,0.3,0.5,0.5,0.9,0.6c0.6,0,2.4,0.2,4.3,0.2c2.4,0,5-0.2,6.3-0.9c1.4-0.8,2.3-2.1,2.7-3.6
	c2.8-0.7,6.3-2.1,10.2-4c2.2-1.1,4.4-2.2,6.7-3.5c1.1-0.7,2.3-1.3,3.4-2l0,0C51.6,18.9,54.8,25.6,54.8,31.7z M19.9,27.2
	c-0.1,1.1-0.7,2.1-1.7,2.7c-1.1,0.6-4.7,0.7-7.7,0.6c1.4-2.6,3.3-5.7,4.3-6.3c1-0.6,2.2-0.6,3.2-0.1c0.6,0.3,1,0.7,1.4,1.3
	C19.7,25.9,19.9,26.5,19.9,27.2z"/>
<path id="Shape_1_" class="st0" d="M19.5,7C17,7,15,9,15,11.5s2,4.5,4.5,4.5s4.5-2,4.5-4.5S22,7,19.5,7z M19.5,13.8
	c-1.2,0-2.2-1-2.2-2.2s1-2.2,2.2-2.2s2.2,1,2.2,2.2S20.7,13.8,19.5,13.8z"/>
<path id="Shape_2_" class="st0" d="M14.5,37C12,37,10,39,10,41.5s2,4.5,4.5,4.5s4.5-2,4.5-4.5S17,37,14.5,37z M14.5,43.8
	c-1.2,0-2.2-1-2.2-2.2s1-2.2,2.2-2.2s2.2,1,2.2,2.2S15.7,43.8,14.5,43.8z"/>
<path id="Shape_3_" class="st0" d="M25.5,44C23,44,21,46,21,48.5s2,4.5,4.5,4.5s4.5-2,4.5-4.5S28,44,25.5,44z M25.5,50.8
	c-1.2,0-2.2-1-2.2-2.2s1-2.2,2.2-2.2s2.2,1,2.2,2.2S26.7,50.8,25.5,50.8z"/>
<path id="Shape_4_" class="st0" d="M38.5,41C36,41,34,43,34,45.5s2,4.5,4.5,4.5s4.5-2,4.5-4.5S41,41,38.5,41z M38.5,47.8
	c-1.2,0-2.2-1-2.2-2.2s1-2.2,2.2-2.2s2.2,1,2.2,2.2S39.7,47.8,38.5,47.8z"/>
<path id="Shape_5_" class="st0" d="M47.5,30C45,30,43,32,43,34.5s2,4.5,4.5,4.5s4.5-2,4.5-4.5S50,30,47.5,30z M47.5,36.8
	c-1.2,0-2.2-1-2.2-2.2s1-2.2,2.2-2.2s2.2,1,2.2,2.2S48.7,36.8,47.5,36.8z"/>
</svg>
