<svg xmlns="http://www.w3.org/2000/svg" viewBox="0 0 500 500"><defs><style>.cls-1{fill:#3b5998;}.cls-2{fill:#ddd;}.cls-3{fill:#fff;}</style></defs><title>fb-icon</title><g id="Layer_2" data-name="Layer 2"><path class="cls-1" d="M250,473.65A223.64,223.64,0,0,1,91.86,91.86,223.64,223.64,0,1,1,408.14,408.14,222.14,222.14,0,0,1,250,473.65Z"/><path class="cls-2" d="M250,27.7a222.36,222.36,0,0,1,86.53,427.13A222.36,222.36,0,0,1,163.47,45.17,221,221,0,0,1,250,27.7m0-2.7C125.74,25,25,125.74,25,250S125.74,475,250,475,475,374.26,475,250,374.26,25,250,25Z"/><path class="cls-3" d="M293.49,158.5h25V114.93A324.05,324.05,0,0,0,282.06,113c-36.06,0-60.77,22.68-60.77,64.38v38.37h-39.8v48.7h39.8V387h48.8V264.46h38.19l6.06-48.7H270.08V182.21c0-14.08,3.8-23.71,23.41-23.71Z"/></g></svg>