<svg xmlns="http://www.w3.org/2000/svg" viewBox="0 0 500 500"><defs><style>.cls-1{fill:#fff;}.cls-2{fill:#ddd;}.cls-3{fill:#fbbd00;}.cls-4{fill:#0f9d58;}.cls-5{fill:#31aa52;}.cls-6{fill:#3c79e6;}.cls-7{fill:#cf2d48;}.cls-8{fill:#eb4132;}</style></defs><title>google-icon</title><g id="Layer_3" data-name="Layer 3"><path class="cls-1" d="M250,473.65A223.64,223.64,0,0,1,91.86,91.86,223.64,223.64,0,1,1,408.14,408.14,222.14,222.14,0,0,1,250,473.65Z"/><path class="cls-2" d="M250,27.7a222.36,222.36,0,0,1,86.53,427.13A222.36,222.36,0,0,1,163.47,45.17,221,221,0,0,1,250,27.7m0-2.7C125.74,25,25,125.74,25,250S125.74,475,250,475,475,374.26,475,250,374.26,25,250,25Z"/><path class="cls-3" d="M177.22,250a72.3,72.3,0,0,1,10.24-37.18V166.63H141.27a137.07,137.07,0,0,0,0,166.74h46.19V287.18A72.3,72.3,0,0,1,177.22,250Z"/><path class="cls-4" d="M250,322.78l-32.11,32.11L250,387a136,136,0,0,0,83.37-28.27V312.59H287.23A72.76,72.76,0,0,1,250,322.78Z"/><path class="cls-5" d="M187.46,287.18l-46.19,46.19a138.37,138.37,0,0,0,11.86,13.5A136.08,136.08,0,0,0,250,387V322.78a72.8,72.8,0,0,1-62.54-35.6Z"/><path class="cls-6" d="M387,250a138,138,0,0,0-2.24-24.82l-1.21-6.58H250v64.22h65a72.5,72.5,0,0,1-27.77,29.77l46.14,46.14a138.37,138.37,0,0,0,13.5-11.86A136.08,136.08,0,0,0,387,250Z"/><path class="cls-7" d="M301.46,198.54l5.68,5.67,45.41-45.41-5.68-5.67A136.08,136.08,0,0,0,250,113l-32.11,32.11L250,177.22A72.27,72.27,0,0,1,301.46,198.54Z"/><path class="cls-8" d="M250,177.22V113a136.08,136.08,0,0,0-96.87,40.13,138.37,138.37,0,0,0-11.86,13.5l46.19,46.19A72.8,72.8,0,0,1,250,177.22Z"/></g></svg>