<?xml version="1.0" encoding="utf-8"?>
<!-- Generator: Adobe Illustrator 24.0.2, SVG Export Plug-In . SVG Version: 6.00 Build 0)  -->
<svg version="1.1" id="Layer_1" xmlns="http://www.w3.org/2000/svg" xmlns:xlink="http://www.w3.org/1999/xlink" x="0px" y="0px"
	 viewBox="0 0 1362 289.4" style="enable-background:new 0 0 1362 289.4;" xml:space="preserve">
<style type="text/css">
	.st0{fill:#9575CD;}
	.st1{fill:#7E57C2;}
	.st2{fill:#4527A0;}
	.st3{fill:#5E35B1;}
	.st4{fill:#FFFFFF;}
	#Layer_1-2{fill:#4527a0;}
</style>
<title>Asset 1</title>
<g id="Layer_2_1_">
	<g id="Layer_1-2">
		<path d="M396.1,80.4h91.8v25.9h-33.1v110.3h-26.8V106.3h-31.8V80.4z"/>
		<path d="M530.8,218.8c-9.9,0-18.2-1.9-25.1-5.6c-6.6-3.5-12.1-8.8-15.6-15.4c-3.7-6.9-5.5-14.7-5.4-22.6c-0.1-7.8,2.1-15.4,6.3-22
			c4.2-6.6,10-11.9,16.8-15.6c7.2-3.9,15.3-5.9,23.5-5.8c11.6,0,21.1,3.4,28.6,10.1s12.3,16.4,14.5,29.1l-62.9,20l-5.7-14.1
			l45.5-15.4L546,164c-1-3.2-2.8-6.1-5.3-8.4c-2.6-2.4-6.4-3.6-11.4-3.6c-3.5-0.1-7,0.9-10.1,2.7c-2.9,1.8-5.2,4.4-6.7,7.6
			c-1.6,3.6-2.4,7.6-2.3,11.6c-0.2,4.4,0.8,8.8,2.8,12.7c1.7,3.3,4.3,5.9,7.6,7.7c3.3,1.8,7,2.6,10.7,2.6c2.8,0,5.6-0.5,8.2-1.5
			c2.7-1,5.4-2.3,7.9-3.9l11.5,19.2c-4.4,2.5-9.1,4.5-14,5.9C540.3,218,535.6,218.7,530.8,218.8z"/>
		<path d="M662,209.4c-4,3.1-8.6,5.4-13.4,6.9c-5.1,1.7-10.4,2.6-15.8,2.6c-9.2,0-17.3-1.7-24.1-5.1c-6.6-3.2-12.2-8.3-15.9-14.6
			c-3.8-6.4-5.6-14-5.6-23c0-9,2-16.6,6.1-23c3.9-6.2,9.4-11.2,16-14.5c6.4-3.3,13.6-5,20.8-5c6.5-0.1,12.9,0.9,19,3
			c5,1.8,9.7,4.4,13.8,7.8L650.2,161c-2.2-1.6-4.6-3-7.1-4.2c-3.3-1.5-7-2.2-10.6-2.1c-3.5,0-6.9,0.9-9.8,2.8c-3,1.9-5.4,4.5-7,7.6
			c-1.8,3.4-2.7,7.2-2.6,11.1c-0.1,3.8,0.9,7.5,2.7,10.8c1.8,3.3,4.4,6,7.7,7.9c3.5,2,7.5,3,11.6,2.9c2.7,0,5.3-0.4,7.9-1.2
			c2.3-0.7,4.4-1.9,6.2-3.4L662,209.4z"/>
		<path d="M681.9,216.6v-146h25.3V152l-0.2-3.1c2.9-5.1,7-9.3,12-12.3c5.2-3.1,11.5-4.7,19-4.7c7.7,0,14,2.2,19.2,6.8
			c5.1,4.4,7.9,10.8,7.9,17.5v60.5h-25.9v-50.9c0-3.1-1-6.1-2.9-8.6c-1.8-2.2-4.8-3.2-9-3.2c-3.8,0-7.5,1.3-10.4,3.9
			c-3.1,2.9-5.5,6.5-6.8,10.5c-1.7,4.9-2.5,10.1-2.4,15.4v32.9L681.9,216.6z"/>
		<path d="M806.2,80.4H833v136.2h-26.8V80.4z"/>
		<path d="M887.4,135.7l2,14.4l-0.4-1.3c2.9-5.1,7-9.3,12-12.3c5.2-3.1,11.5-4.7,19-4.7c7.7,0,14,2.2,19.2,6.8
			c5.1,4.4,7.9,10.8,7.9,17.5v60.5h-25.9v-50.9c0-3.1-1-6.1-2.9-8.6c-1.8-2.2-4.8-3.2-9-3.2c-3.8,0-7.5,1.3-10.4,3.9
			c-3.1,2.9-5.5,6.5-6.8,10.5c-1.7,4.9-2.5,10.1-2.4,15.4v32.9h-25.9v-80.8H887.4z"/>
		<path d="M981.4,100.2h25.9v35.2h19.6v20.2h-19.6v61h-25.9v-61h-12.6v-20.2h12.6V100.2z"/>
		<path d="M1086.5,218.8c-9.9,0-18.2-1.9-25.1-5.6c-6.6-3.5-12-8.8-15.6-15.4c-3.7-6.9-5.5-14.7-5.4-22.6c-0.1-7.8,2.1-15.4,6.3-22
			c4.2-6.5,10-11.9,16.8-15.6c7.2-3.9,15.3-5.9,23.5-5.8c11.6,0,21.1,3.4,28.6,10.1s12.3,16.4,14.5,29.1l-62.9,20l-5.7-14.1
			l45.5-15.4l-5.4,2.4c-1-3.2-2.8-6.1-5.3-8.4c-2.5-2.4-6.3-3.6-11.4-3.6c-3.5-0.1-7,0.9-10.1,2.7c-2.9,1.8-5.2,4.4-6.7,7.6
			c-1.6,3.6-2.4,7.6-2.3,11.6c-0.2,4.4,0.8,8.8,2.8,12.7c1.7,3.3,4.4,5.9,7.6,7.7c3.3,1.8,7,2.6,10.7,2.6c2.8,0,5.6-0.5,8.2-1.5
			c2.7-1,5.4-2.3,7.9-3.9l11.5,19.2c-4.4,2.5-9.1,4.5-14,5.9C1096,218,1091.3,218.7,1086.5,218.8z"/>
		<path d="M1172.5,135.7l2,14.4l-0.4-1.3c2.9-5.1,7-9.3,12-12.3c5.2-3.1,11.5-4.7,19-4.7c7.7,0,14,2.2,19.2,6.8
			c5.1,4.4,7.9,10.8,7.9,17.5v60.5h-25.9v-50.9c0-3.1-1-6.1-2.9-8.6c-1.8-2.2-4.8-3.2-9-3.2c-3.8,0-7.5,1.3-10.4,3.9
			c-3.1,2.9-5.5,6.5-6.8,10.5c-1.7,4.9-2.5,10.1-2.4,15.4v32.9H1149v-80.8H1172.5z"/>
		<path d="M1276.5,100.2h25.9v35.2h19.6v20.2h-19.6v61h-25.9v-61h-12.6v-20.2h12.6V100.2z"/>
		<path class="st0" d="M15.7,182.2c50.3-96.5,160.7-145.4,266-118l-25.9-44.9C248.9,7.4,236.2,0,222.4,0H99.8
			C86.1,0,73.3,7.4,66.4,19.3L5.2,125.4c-6.9,11.9-6.9,26.6,0,38.6L15.7,182.2z"/>
		<path class="st1" d="M15.7,182.2l38.9,67.5c22.3-92.8,115.6-150,208.3-127.7c21.2,5.1,41.2,14.1,59,26.7c0.8-8.1-0.9-16.2-5-23.2
			l-35.3-61.3C176.4,36.7,66,85.6,15.7,182.2L15.7,182.2z"/>
		<path class="st2" d="M54.6,249.6l11.8,20.5c6.9,11.9,19.6,19.3,33.4,19.3h23.4c0.3-54.9,45-99.2,99.9-98.9
			c23.8,0.1,46.7,8.7,64.6,24.3l29.3-50.7c2.7-4.7,4.4-10,5-15.4C244,93.7,136.2,112.5,81.3,190.6C68.8,208.4,59.7,228.4,54.6,249.6
			L54.6,249.6z"/>
		<path class="st3" d="M123.2,289.4h55.1c0.2-24.5,20.3-44.1,44.7-43.8c14.4,0.1,27.8,7.2,35.9,19l28.8-49.8
			c-41.5-36-104.3-31.5-140.2,10C132,242.7,123.4,265.6,123.2,289.4L123.2,289.4z"/>
		<path class="st0" d="M222.6,245.6c-24.3,0-44,19.5-44.3,43.8h44c13.8,0,26.5-7.4,33.4-19.3l3.2-5.5
			C250.7,252.7,237.1,245.6,222.6,245.6z"/>
		<rect x="209.3" y="124.6" class="st4" width="35.4" height="92.4"/>
		<path class="st4" d="M77.6,72.3v35.1h37l0.2,56.7h39.5l-0.7-56.7h36.9V72.3H77.6z"/>
		<path class="st2" d="M226.6,72.3h0.7c9.6,0,17.3,7.8,17.3,17.3v0c0,9.6-7.8,17.3-17.3,17.3h-0.7c-9.6,0-17.3-7.8-17.3-17.3v0
			C209.3,80.1,217,72.3,226.6,72.3z"/>
		<path class="st0" d="M132.2,181.7h5.2c9.6,0,17.3,7.8,17.3,17.3v0.7c0,9.6-7.8,17.3-17.3,17.3h-5.2c-9.6,0-17.3-7.8-17.3-17.3V199
			C114.9,189.4,122.7,181.7,132.2,181.7z"/>
	</g>
</g>
</svg>
