<?xml version="1.0" encoding="utf-8"?>
<!-- Generator: Adobe Illustrator 24.0.2, SVG Export Plug-In . SVG Version: 6.00 Build 0)  -->
<svg version="1.1" id="Layer_1" xmlns="http://www.w3.org/2000/svg" xmlns:xlink="http://www.w3.org/1999/xlink" x="0px" y="0px"
	 viewBox="0 0 324.6 289.4" style="enable-background:new 0 0 324.6 289.4;" xml:space="preserve">
<style type="text/css">
	.st0{fill:#9575CD;}
	.st1{fill:#7E57C2;}
	.st2{fill:#4527A0;}
	.st3{fill:#5E35B1;}
	.st4{fill:#FFFFFF;}
</style>
<title>Asset 1</title>
<g id="Layer_2_1_">
	<g id="Layer_1-2">
		<path class="st0" d="M15.7,182.2c50.3-96.5,160.7-145.4,266-118l-25.9-44.9C248.9,7.4,236.2,0,222.4,0H99.8
			C86.1,0,73.3,7.4,66.4,19.3L5.2,125.4c-6.9,11.9-6.9,26.6,0,38.6L15.7,182.2z"/>
		<path class="st1" d="M15.7,182.2l38.9,67.5c22.3-92.8,115.6-150,208.3-127.7c21.2,5.1,41.2,14.1,59,26.7c0.8-8.1-0.9-16.2-5-23.2
			l-35.3-61.3C176.4,36.7,66,85.6,15.7,182.2L15.7,182.2z"/>
		<path class="st2" d="M54.6,249.6l11.8,20.5c6.9,11.9,19.6,19.3,33.4,19.3h23.4c0.3-54.9,45-99.2,99.9-98.9
			c23.8,0.1,46.7,8.7,64.6,24.3l29.3-50.7c2.7-4.7,4.4-10,5-15.4c-78-55-185.8-36.2-240.7,41.9C68.8,208.4,59.7,228.4,54.6,249.6
			L54.6,249.6z"/>
		<path class="st3" d="M123.2,289.4h55.1c0.2-24.5,20.3-44.1,44.7-43.8c14.4,0.1,27.8,7.2,35.9,19l28.8-49.8
			c-41.5-36-104.3-31.5-140.2,10C132,242.7,123.4,265.6,123.2,289.4L123.2,289.4z"/>
		<path class="st0" d="M222.6,245.6c-24.3,0-44,19.5-44.3,43.8h44c13.8,0,26.5-7.4,33.4-19.3l3.2-5.5
			C250.7,252.7,237.1,245.6,222.6,245.6z"/>
		<rect x="209.3" y="124.6" class="st4" width="35.4" height="92.4"/>
		<path class="st4" d="M77.6,72.3v35.1h37l0.2,56.7h39.5l-0.7-56.7h36.9V72.3H77.6z"/>
		<path class="st2" d="M226.6,72.3h0.7c9.6,0,17.3,7.8,17.3,17.3l0,0c0,9.6-7.8,17.3-17.3,17.3h-0.7c-9.6,0-17.3-7.8-17.3-17.3l0,0
			C209.3,80.1,217,72.3,226.6,72.3z"/>
		<path class="st0" d="M132.2,181.7h5.2c9.6,0,17.3,7.8,17.3,17.3v0.7c0,9.6-7.8,17.3-17.3,17.3h-5.2c-9.6,0-17.3-7.8-17.3-17.3V199
			C114.9,189.4,122.7,181.7,132.2,181.7z"/>
	</g>
</g>
</svg>
